<?xml version="1.0" encoding="utf-8" standalone="no"?>
<!DOCTYPE svg PUBLIC "-//W3C//DTD SVG 1.1//EN"
  "http://www.w3.org/Graphics/SVG/1.1/DTD/svg11.dtd">
<!-- Created with matplotlib (http://matplotlib.org/) -->
<svg height="432pt" version="1.1" viewBox="0 0 302 432" width="302pt" xmlns="http://www.w3.org/2000/svg" xmlns:xlink="http://www.w3.org/1999/xlink">
 <defs>
  <style type="text/css">
*{stroke-linecap:square;stroke-linejoin:round;}
  </style>
 </defs>
 <g id="figure_1">
  <g id="patch_1">
   <path d="
M0 432
L302.4 432
L302.4 0
L0 0
z
" style="fill:none;opacity:0.0;"/>
  </g>
  <g id="axes_1">
   <g id="patch_2">
    <path d="
M37.8 345.6
L272.16 345.6
L272.16 43.2
L37.8 43.2
z
" style="fill:none;opacity:0.0;"/>
   </g>
   <g id="line2d_1">
    <path clip-path="url(#p25f105f143)" d="
M256.492 43.2
L256.442 43.6126
L256.453 44.0251
L256.503 45.6753
L256.422 46.0879
L256.619 49.8008
L256.529 52.6887
L255.896 53.1012
L253.133 53.9263
L253.385 54.7514
L253.301 55.164
L253.513 55.5765
L253.345 55.9891
L252.988 56.4016
L252.915 60.1146
L252.952 65.8903
L252.984 71.666
L252.36 73.3162
L251.281 73.7288
L250.567 74.1413
L242.997 74.9664
L241.239 75.379
L240.109 75.7915
L239.603 76.2041
L239.283 76.6166
L238.468 77.0292
L238.143 77.4417
L236.537 78.2668
L233.677 78.6794
L232.096 79.092
L231.97 79.5045
L230.531 80.3296
L230.068 80.7422
L229.056 81.1547
L229.004 81.5673
L227.648 81.9798
L224.525 82.3924
L224.02 82.8049
L223.767 83.2175
L222.943 83.63
L220.897 84.0426
L220.284 84.4551
L220.156 84.8677
L219.663 85.2802
L218.406 85.6928
L217.701 86.1053
L217.503 86.5179
L216.696 86.9304
L216.685 87.343
L216.866 87.7555
L215.429 88.1681
L215.072 88.5806
L213.792 88.9932
L212.952 89.4057
L212.077 90.2308
L211.486 90.6434
L210.476 91.0559
L210.034 91.4685
L208.618 91.881
L208.222 92.2936
L205.777 92.7061
L205.246 93.1187
L205.033 93.9438
L204.996 94.3563
L204.44 94.7689
L204.042 95.594
L203.666 96.4191
L203.179 96.8317
L203.374 97.6568
L203.097 98.0693
L202.573 98.4819
L202.495 98.8944
L200.689 100.545
L199.736 101.782
L198.352 102.195
L198.308 102.607
L197.847 103.432
L196.75 103.845
L195.141 104.258
L194.936 104.67
L193.101 105.083
L192.697 105.495
L191.959 105.908
L191.49 106.32
L190.566 106.733
L190.014 107.145
L188.923 107.558
L188.338 107.971
L188.262 108.383
L186.761 109.208
L186.153 109.621
L185.884 110.033
L184.522 110.858
L184.35 111.271
L184.342 111.683
L183.104 112.509
L183.137 112.921
L181.679 113.334
L181.084 113.746
L178.935 116.222
L178.344 116.634
L178.212 117.047
L176.332 118.284
L175.809 118.697
L175.427 119.522
L175.347 119.935
L174 120.347
L172.992 121.172
L172.398 122.822
L171.855 123.235
L170.875 124.473
L169.867 124.885
L168.668 127.36
L168.109 127.773
L167.754 128.598
L167.376 129.423
L166.939 130.248
L166.286 130.661
L166.129 131.073
L165.146 131.898
L164.996 132.311
L163.137 133.136
L162.61 133.549
L161.216 135.611
L160.708 136.024
L160.673 136.437
L158.749 137.262
L157.74 137.674
L156.899 138.499
L155.625 140.15
L155.481 140.975
L155.172 141.387
L154.543 141.8
L154.049 142.625
L153.032 143.037
L152.367 143.45
L152.053 143.862
L151.263 144.275
L150.363 145.925
L149.136 146.338
L148.77 146.75
L148.691 147.163
L147.33 147.988
L146.655 148.813
L145.875 149.226
L145.442 149.638
L145.297 150.051
L144.469 150.463
L143.472 151.701
L142.073 152.526
L141.399 152.939
L140.954 153.351
L140.737 153.764
L140.094 154.176
L139.69 154.589
L138.811 155.001
L137.066 156.239
L136.883 156.652
L136.485 157.064
L135.401 157.477
L135.35 157.889
L134.868 158.714
L134.541 159.539
L133.336 160.365
L133.148 160.777
L132.544 161.19
L132.146 161.602
L130.83 162.427
L130.702 163.252
L130.248 163.665
L130.064 164.077
L129.371 164.49
L129.2 164.903
L128.32 165.315
L128.095 165.728
L127.611 166.14
L126.374 166.965
L125.963 167.79
L124.513 168.616
L124.331 169.028
L123.92 169.441
L121.438 170.678
L121.052 171.091
L121.094 171.503
L120.937 172.329
L120.395 173.154
L120.046 173.566
L119.146 173.979
L118.807 174.391
L118.555 175.216
L117.61 176.041
L117.444 176.454
L117.013 176.867
L116.234 177.279
L115.961 177.692
L114.985 178.104
L114.809 178.517
L113.961 178.929
L113.667 179.342
L112.381 179.754
L110.475 181.405
L110.205 182.23
L109.884 182.642
L109.731 183.055
L108.947 183.467
L108.483 184.292
L108.106 185.118
L106.573 186.355
L106.175 187.18
L105.823 187.593
L104.92 188.005
L104.758 188.418
L103.485 189.656
L103.448 190.068
L102.642 190.893
L102.299 191.306
L101.055 192.131
L100.762 192.544
L100.599 193.369
L100.403 194.194
L99.0758 195.019
L98.2349 196.256
L97.1165 196.669
L96.4144 197.082
L96.2934 197.907
L95.9203 198.732
L95.3363 199.144
L95.1676 199.557
L94.6173 200.382
L94.4073 200.795
L93.2018 201.207
L92.9843 201.62
L92.9599 202.445
L93.1624 203.682
L93.0133 204.92
L92.4659 205.745
L92.3478 206.158
L91.9053 206.57
L91.5575 207.395
L91.3859 208.22
L90.7063 209.046
L90.3801 209.871
L89.6695 210.283
L89.7107 210.696
L88.7077 211.933
L88.3608 212.759
L87.9193 213.171
L87.8049 213.584
L87.3109 213.996
L86.9106 214.821
L86.7353 215.234
L86.7109 215.646
L85.5298 218.534
L85.4735 218.947
L84.5145 220.184
L84.3486 220.597
L83.4233 221.835
L83.2518 222.247
L82.9199 222.66
L82.7465 223.072
L82.6921 223.897
L82.5703 224.31
L82.14 224.723
L81.974 225.548
L81.5775 226.373
L81.3103 227.198
L81.1978 227.61
L79.8048 230.086
L79.3708 233.386
L79.3361 235.036
L79.1945 236.274
L78.3968 236.686
L78.0959 237.099
L77.9543 237.512
L77.9487 237.924
L77.6271 238.337
L77.4387 239.162
L77.4565 239.574
L77.3131 240.399
L76.4075 246.175
L76.2032 246.588
L76.2969 247.413
L76.0935 248.238
L75.9913 249.063
L76.011 249.476
L75.8254 249.888
L75.8188 250.713
L75.8235 251.126
L75.5198 251.538
L75.1382 253.189
L74.887 253.601
L74.362 256.489
L74.2542 257.727
L74.152 258.964
L73.9308 259.377
L73.8314 260.202
L73.8314 261.027
L73.7311 262.677
L73.6186 263.502
L73.5783 264.327
L73.2324 265.565
L73.0234 266.39
L72.9868 267.215
L72.4665 267.628
L72.0372 269.278
L71.9088 269.691
L71.8525 270.516
L71.3932 272.166
L71.4203 272.991
L71.2141 273.404
L71.1879 274.229
L71.1626 275.054
L70.8616 275.879
L70.3845 278.767
L69.7198 280.829
L69.8192 281.242
L69.5642 282.892
L69.4377 283.717
L69.3758 285.368
L69.3974 286.193
L69.3345 287.018
L69.2605 288.668
L69.1199 289.906
L69.0505 292.793
L69.0439 297.332
L68.8461 298.157
L68.8546 303.107
L68.8274 304.345
L68.9249 305.995
L68.8893 307.233
L68.923 309.708
L69.0186 310.533
L69.1649 313.834
L69.3411 315.071
L69.403 322.085
L69.6645 324.147
L69.7873 324.972
L69.7789 325.798
L69.9261 326.623
L70.0404 329.511
L70.1436 331.161
L70.2092 331.986
L70.3873 333.223
L71.2254 345.6
L71.2254 345.6" style="fill:none;stroke:#008000;stroke-width:2.0;"/>
   </g>
   <g id="line2d_2">
    <path clip-path="url(#p25f105f143)" d="
M260.184 43.2
L272.064 43.6126
L271.856 44.0251
L271.76 44.8502
L271.83 45.2628
L271.76 45.6753
L271.578 46.0879
L271.586 46.5004
L271.369 46.913
L272.012 47.3255
L271.969 49.3883
L272.16 49.8008
L272.004 51.0385
L272.073 51.451
L272.004 51.8636
L272.108 52.2761
L271.821 52.6887
L270.092 53.1012
L262.287 53.9263
L262.705 54.3389
L263.409 54.7514
L263.2 55.164
L264.095 55.5765
L263.634 55.9891
L262.548 56.4016
L262.418 57.2267
L262.27 60.1146
L262.322 62.1774
L262.348 63.415
L262.626 66.7154
L262.626 67.5405
L262.748 69.1907
L262.896 70.4284
L262.957 71.2535
L262.948 71.666
L262.513 72.0786
L262.314 72.4911
L261.288 73.3162
L257.516 74.1413
L246.166 74.9664
L240.535 75.7915
L237.424 77.0292
L236.754 77.4417
L232.939 78.2668
L228.072 78.6794
L225.344 79.092
L224.857 79.5045
L224.057 79.9171
L222.406 80.3296
L221.607 80.7422
L219.938 81.1547
L219.564 81.5673
L217.626 81.9798
L211.491 82.3924
L209.866 82.8049
L208.823 83.2175
L207.285 83.63
L203.939 84.0426
L202.348 84.4551
L202.088 84.8677
L201.384 85.2802
L198.272 86.1053
L197.673 86.5179
L196.482 86.9304
L198.116 87.7555
L196.543 88.1681
L195.761 88.5806
L193.736 88.9932
L191.494 89.8183
L189.764 90.6434
L188.217 91.0559
L187.418 91.4685
L185.202 91.881
L184.48 92.2936
L180.378 92.7061
L178.84 93.1187
L178.371 93.5312
L178.797 93.9438
L178.936 94.3563
L177.615 95.594
L177.45 96.0065
L178.571 96.4191
L177.554 96.8317
L178.449 97.6568
L178.154 98.0693
L177.389 98.4819
L177.337 98.8944
L176.216 99.7195
L174.503 100.545
L173.687 101.37
L173.113 101.782
L170.879 102.195
L170.315 102.607
L170.028 103.02
L169.541 103.432
L167.986 103.845
L165.378 104.258
L164.683 104.67
L161.728 105.083
L153.785 107.971
L153.933 108.383
L150.804 109.621
L149.57 110.446
L148.093 110.858
L147.745 111.271
L147.676 112.096
L146.833 112.509
L146.589 112.921
L144.669 113.334
L143.356 113.746
L140.558 115.396
L140.262 115.809
L137.325 117.459
L136.221 117.872
L134.866 119.109
L135.204 119.522
L135.222 119.935
L133.545 120.347
L132.015 121.172
L131.415 121.997
L130.981 122.822
L130.277 123.235
L129.964 123.647
L129.06 124.473
L128.061 124.885
L127.27 125.71
L125.932 128.598
L125.836 129.011
L125.019 130.248
L124.35 130.661
L124.072 131.073
L123.403 131.486
L122.699 132.311
L120.196 133.136
L119.527 133.549
L119.309 133.961
L117.363 136.024
L116.945 136.437
L112.618 138.499
L112.313 138.912
L111.331 139.737
L110.975 140.15
L110.732 140.975
L110.541 141.387
L109.776 141.8
L109.185 142.625
L107.316 143.45
L105.43 144.688
L105.231 145.1
L104.422 145.925
L103.397 146.338
L102.693 146.75
L102.38 147.163
L101.111 147.988
L100.355 148.401
L99.8945 148.813
L98.5561 149.638
L98.2607 150.051
L97.3829 150.463
L96.3922 151.288
L95.9576 151.701
L92.716 153.351
L92.3423 153.764
L90.3087 155.001
L89.3267 155.414
L88.814 155.826
L88.0057 156.239
L87.2757 157.064
L86.0677 157.477
L85.5289 158.302
L84.4339 159.952
L83.7734 160.365
L82.3307 161.602
L80.8273 162.427
L80.5057 162.84
L80.3319 163.252
L79.6888 164.077
L78.9762 164.49
L78.6981 164.903
L77.9767 165.315
L77.1424 166.14
L75.7259 166.965
L75.1784 167.79
L73.701 168.616
L73.0057 169.441
L72.519 169.853
L71.311 170.266
L70.216 171.091
L70.3725 171.503
L69.8249 173.154
L68.0781 174.804
L67.9825 175.216
L66.8093 176.454
L66.5573 176.867
L64.3585 178.517
L63.9848 178.929
L61.7253 180.167
L61.4298 180.58
L60.1088 181.817
L59.431 183.055
L58.588 183.88
L57.519 185.53
L53.1042 190.068
L53.0607 190.481
L51.9744 191.718
L50.9228 192.544
L50.4622 194.194
L49.6106 194.606
L48.446 196.256
L46.9512 197.082
L45.0132 200.795
L44.3267 201.207
L43.9703 201.62
L43.9008 202.445
L44.6482 203.682
L44.9263 205.333
L44.5613 205.745
L44.3527 206.57
L43.8226 207.395
L43.501 208.633
L43.1708 209.871
L42.3017 211.108
L42.2583 211.521
L41.8846 211.933
L41.537 213.171
L40.8417 214.821
L40.833 215.234
L40.6505 216.059
L40.4333 217.297
L39.7293 219.772
L39.1818 220.597
L39.2687 221.01
L38.8689 221.422
L37.8 225.548
L37.9304 226.785
L37.8608 227.198
L37.9651 227.61
L37.9912 228.435
L38.026 230.911
L38.0346 231.736
L38.026 232.561
L38.0781 232.974
L38.2432 233.386
L38.1911 234.211
L38.2345 236.274
L38.6517 236.686
L38.643 237.099
L38.4344 237.512
L38.391 237.924
L38.6517 238.337
L38.756 238.749
L38.7038 239.574
L38.7994 240.399
L38.8863 242.05
L39.26 243.7
L39.5468 244.112
L39.5034 244.938
L39.3295 246.175
L39.6511 247
L39.851 247.413
L39.9205 248.238
L39.851 248.65
L40.1117 249.888
L40.4593 250.301
L40.7809 251.538
L40.694 252.363
L40.7635 253.189
L40.9199 253.601
L40.9199 254.014
L41.172 254.426
L41.0937 255.251
L41.537 258.552
L41.8411 259.377
L41.8411 259.789
L42.0236 260.202
L41.8846 260.614
L42.2235 261.44
L42.3104 262.265
L42.3278 263.09
L42.6233 263.502
L42.6754 264.327
L42.7971 264.74
L42.7884 266.39
L42.9101 266.803
L42.9014 267.215
L43.0926 267.628
L43.0491 268.04
L43.3794 268.453
L43.5793 269.278
L44.0486 269.691
L44.2137 270.103
L44.2571 270.516
L45.2305 272.991
L45.3261 273.404
L45.6389 273.816
L45.8041 274.641
L45.8301 275.054
L46.143 275.466
L46.9338 277.942
L47.49 278.767
L47.5856 279.179
L47.5335 280.004
L47.5683 280.417
L47.7247 280.829
L48.2027 281.242
L48.2548 281.655
L48.4982 282.067
L48.5764 282.48
L48.5329 283.305
L48.6807 284.13
L48.7502 284.955
L48.8892 285.368
L49.3325 285.78
L50.6795 291.143
L50.9402 291.556
L51.1401 293.206
L51.34 294.444
L51.3313 294.856
L51.9136 296.506
L51.8962 296.919
L52.3655 297.744
L52.6436 299.394
L52.8348 299.807
L52.9912 300.632
L53.2432 301.044
L53.417 301.87
L53.9385 302.282
L53.9472 302.695
L54.0949 303.107
L54.0862 303.932
L54.7989 304.757
L55.2768 305.583
L55.5636 306.408
L55.6158 307.233
L56.3632 309.708
L57.0063 310.121
L57.1975 310.946
L57.5972 311.771
L58.2664 313.834
L59.2485 315.071
L60.1262 317.134
L60.413 318.372
L60.9084 320.434
L61.7427 322.91
L62.1598 323.322
L62.3771 324.147
L62.6899 324.56
L62.7682 324.972
L63.6807 327.035
L63.7937 327.86
L64.1847 328.685
L64.8191 330.336
L65.0016 331.573
L66.1227 333.223
L67.7044 337.349
L67.7826 337.762
L68.3041 338.587
L69.1645 341.887
L69.2514 342.712
L69.5295 343.125
L69.9205 344.362
L69.7989 345.6
L69.7989 345.6" style="fill:none;stroke:#0000ff;stroke-width:2.0;"/>
   </g>
   <g id="mpl_toolkits.axisartist.axis_artist_1">
    <defs>
     <path d="
M0 0
L2.44929e-16 -4" id="m5884616ec4" style="stroke:#000000;stroke-linecap:butt;stroke-width:0.5;"/>
    </defs>
    <g>
     <use style="fill:none;stroke:#000000;stroke-linecap:butt;stroke-width:0.5;" x="52.4958415842" xlink:href="#m5884616ec4" y="345.6"/>
     <use style="fill:none;stroke:#000000;stroke-linecap:butt;stroke-width:0.5;" x="52.4958415842" xlink:href="#m5884616ec4" y="345.6"/>
    </g>
    <g>
     <use style="fill:none;stroke:#000000;stroke-linecap:butt;stroke-width:0.5;" x="95.94895094" xlink:href="#m5884616ec4" y="345.6"/>
     <use style="fill:none;stroke:#000000;stroke-linecap:butt;stroke-width:0.5;" x="95.94895094" xlink:href="#m5884616ec4" y="345.6"/>
    </g>
    <g>
     <use style="fill:none;stroke:#000000;stroke-linecap:butt;stroke-width:0.5;" x="139.402060296" xlink:href="#m5884616ec4" y="345.6"/>
     <use style="fill:none;stroke:#000000;stroke-linecap:butt;stroke-width:0.5;" x="139.402060296" xlink:href="#m5884616ec4" y="345.6"/>
    </g>
    <g>
     <use style="fill:none;stroke:#000000;stroke-linecap:butt;stroke-width:0.5;" x="182.855169652" xlink:href="#m5884616ec4" y="345.6"/>
     <use style="fill:none;stroke:#000000;stroke-linecap:butt;stroke-width:0.5;" x="182.855169652" xlink:href="#m5884616ec4" y="345.6"/>
    </g>
    <g>
     <use style="fill:none;stroke:#000000;stroke-linecap:butt;stroke-width:0.5;" x="226.308279008" xlink:href="#m5884616ec4" y="345.6"/>
     <use style="fill:none;stroke:#000000;stroke-linecap:butt;stroke-width:0.5;" x="226.308279008" xlink:href="#m5884616ec4" y="345.6"/>
    </g>
    <g>
     <use style="fill:none;stroke:#000000;stroke-linecap:butt;stroke-width:0.5;" x="269.761388364" xlink:href="#m5884616ec4" y="345.6"/>
     <use style="fill:none;stroke:#000000;stroke-linecap:butt;stroke-width:0.5;" x="269.761388364" xlink:href="#m5884616ec4" y="345.6"/>
    </g>
    <g id="text_1">
     <!-- 34.5 -->
     <defs>
      <path d="
M40.5781 39.3125
Q47.6562 37.7969 51.625 33
Q55.6094 28.2188 55.6094 21.1875
Q55.6094 10.4062 48.1875 4.48438
Q40.7656 -1.42188 27.0938 -1.42188
Q22.5156 -1.42188 17.6562 -0.515625
Q12.7969 0.390625 7.625 2.20312
L7.625 11.7188
Q11.7188 9.32812 16.5938 8.10938
Q21.4844 6.89062 26.8125 6.89062
Q36.0781 6.89062 40.9375 10.5469
Q45.7969 14.2031 45.7969 21.1875
Q45.7969 27.6406 41.2812 31.2656
Q36.7656 34.9062 28.7188 34.9062
L20.2188 34.9062
L20.2188 43.0156
L29.1094 43.0156
Q36.375 43.0156 40.2344 45.9219
Q44.0938 48.8281 44.0938 54.2969
Q44.0938 59.9062 40.1094 62.9062
Q36.1406 65.9219 28.7188 65.9219
Q24.6562 65.9219 20.0156 65.0312
Q15.375 64.1562 9.8125 62.3125
L9.8125 71.0938
Q15.4375 72.6562 20.3438 73.4375
Q25.25 74.2188 29.5938 74.2188
Q40.8281 74.2188 47.3594 69.1094
Q53.9062 64.0156 53.9062 55.3281
Q53.9062 49.2656 50.4375 45.0938
Q46.9688 40.9219 40.5781 39.3125" id="BitstreamVeraSans-Roman-33"/>
      <path d="
M10.6875 12.4062
L21 12.4062
L21 0
L10.6875 0
z
" id="BitstreamVeraSans-Roman-2e"/>
      <path d="
M37.7969 64.3125
L12.8906 25.3906
L37.7969 25.3906
z

M35.2031 72.9062
L47.6094 72.9062
L47.6094 25.3906
L58.0156 25.3906
L58.0156 17.1875
L47.6094 17.1875
L47.6094 0
L37.7969 0
L37.7969 17.1875
L4.89062 17.1875
L4.89062 26.7031
z
" id="BitstreamVeraSans-Roman-34"/>
      <path d="
M10.7969 72.9062
L49.5156 72.9062
L49.5156 64.5938
L19.8281 64.5938
L19.8281 46.7344
Q21.9688 47.4688 24.1094 47.8281
Q26.2656 48.1875 28.4219 48.1875
Q40.625 48.1875 47.75 41.5
Q54.8906 34.8125 54.8906 23.3906
Q54.8906 11.625 47.5625 5.09375
Q40.2344 -1.42188 26.9062 -1.42188
Q22.3125 -1.42188 17.5469 -0.640625
Q12.7969 0.140625 7.71875 1.70312
L7.71875 11.625
Q12.1094 9.23438 16.7969 8.0625
Q21.4844 6.89062 26.7031 6.89062
Q35.1562 6.89062 40.0781 11.3281
Q45.0156 15.7656 45.0156 23.3906
Q45.0156 31 40.0781 35.4375
Q35.1562 39.8906 26.7031 39.8906
Q22.75 39.8906 18.8125 39.0156
Q14.8906 38.1406 10.7969 36.2812
z
" id="BitstreamVeraSans-Roman-35"/>
     </defs>
     <g transform="translate(43.2124822092 356.2796875)scale(0.09 -0.09)">
      <use xlink:href="#BitstreamVeraSans-Roman-33"/>
      <use x="63.623046875" xlink:href="#BitstreamVeraSans-Roman-34"/>
      <use x="127.24609375" xlink:href="#BitstreamVeraSans-Roman-2e"/>
      <use x="159.033203125" xlink:href="#BitstreamVeraSans-Roman-35"/>
     </g>
    </g>
    <g id="text_2">
     <!-- 35.0 -->
     <defs>
      <path d="
M31.7812 66.4062
Q24.1719 66.4062 20.3281 58.9062
Q16.5 51.4219 16.5 36.375
Q16.5 21.3906 20.3281 13.8906
Q24.1719 6.39062 31.7812 6.39062
Q39.4531 6.39062 43.2812 13.8906
Q47.125 21.3906 47.125 36.375
Q47.125 51.4219 43.2812 58.9062
Q39.4531 66.4062 31.7812 66.4062
M31.7812 74.2188
Q44.0469 74.2188 50.5156 64.5156
Q56.9844 54.8281 56.9844 36.375
Q56.9844 17.9688 50.5156 8.26562
Q44.0469 -1.42188 31.7812 -1.42188
Q19.5312 -1.42188 13.0625 8.26562
Q6.59375 17.9688 6.59375 36.375
Q6.59375 54.8281 13.0625 64.5156
Q19.5312 74.2188 31.7812 74.2188" id="BitstreamVeraSans-Roman-30"/>
     </defs>
     <g transform="translate(86.571372815 356.2796875)scale(0.09 -0.09)">
      <use xlink:href="#BitstreamVeraSans-Roman-33"/>
      <use x="63.623046875" xlink:href="#BitstreamVeraSans-Roman-35"/>
      <use x="127.24609375" xlink:href="#BitstreamVeraSans-Roman-2e"/>
      <use x="159.033203125" xlink:href="#BitstreamVeraSans-Roman-30"/>
     </g>
    </g>
    <g id="text_3">
     <!-- 35.5 -->
     <g transform="translate(130.118700921 356.2796875)scale(0.09 -0.09)">
      <use xlink:href="#BitstreamVeraSans-Roman-33"/>
      <use x="63.623046875" xlink:href="#BitstreamVeraSans-Roman-35"/>
      <use x="127.24609375" xlink:href="#BitstreamVeraSans-Roman-2e"/>
      <use x="159.033203125" xlink:href="#BitstreamVeraSans-Roman-35"/>
     </g>
    </g>
    <g id="text_4">
     <!-- 36.0 -->
     <defs>
      <path d="
M33.0156 40.375
Q26.375 40.375 22.4844 35.8281
Q18.6094 31.2969 18.6094 23.3906
Q18.6094 15.5312 22.4844 10.9531
Q26.375 6.39062 33.0156 6.39062
Q39.6562 6.39062 43.5312 10.9531
Q47.4062 15.5312 47.4062 23.3906
Q47.4062 31.2969 43.5312 35.8281
Q39.6562 40.375 33.0156 40.375
M52.5938 71.2969
L52.5938 62.3125
Q48.875 64.0625 45.0938 64.9844
Q41.3125 65.9219 37.5938 65.9219
Q27.8281 65.9219 22.6719 59.3281
Q17.5312 52.7344 16.7969 39.4062
Q19.6719 43.6562 24.0156 45.9219
Q28.375 48.1875 33.5938 48.1875
Q44.5781 48.1875 50.9531 41.5156
Q57.3281 34.8594 57.3281 23.3906
Q57.3281 12.1562 50.6875 5.35938
Q44.0469 -1.42188 33.0156 -1.42188
Q20.3594 -1.42188 13.6719 8.26562
Q6.98438 17.9688 6.98438 36.375
Q6.98438 53.6562 15.1875 63.9375
Q23.3906 74.2188 37.2031 74.2188
Q40.9219 74.2188 44.7031 73.4844
Q48.4844 72.75 52.5938 71.2969" id="BitstreamVeraSans-Roman-36"/>
     </defs>
     <g transform="translate(173.477591527 356.2796875)scale(0.09 -0.09)">
      <use xlink:href="#BitstreamVeraSans-Roman-33"/>
      <use x="63.623046875" xlink:href="#BitstreamVeraSans-Roman-36"/>
      <use x="127.24609375" xlink:href="#BitstreamVeraSans-Roman-2e"/>
      <use x="159.033203125" xlink:href="#BitstreamVeraSans-Roman-30"/>
     </g>
    </g>
    <g id="text_5">
     <!-- 36.5 -->
     <g transform="translate(217.024919633 356.2796875)scale(0.09 -0.09)">
      <use xlink:href="#BitstreamVeraSans-Roman-33"/>
      <use x="63.623046875" xlink:href="#BitstreamVeraSans-Roman-36"/>
      <use x="127.24609375" xlink:href="#BitstreamVeraSans-Roman-2e"/>
      <use x="159.033203125" xlink:href="#BitstreamVeraSans-Roman-35"/>
     </g>
    </g>
    <g id="text_6">
     <!-- 37.0 -->
     <defs>
      <path d="
M8.20312 72.9062
L55.0781 72.9062
L55.0781 68.7031
L28.6094 0
L18.3125 0
L43.2188 64.5938
L8.20312 64.5938
z
" id="BitstreamVeraSans-Roman-37"/>
     </defs>
     <g transform="translate(260.383810239 356.2796875)scale(0.09 -0.09)">
      <use xlink:href="#BitstreamVeraSans-Roman-33"/>
      <use x="63.623046875" xlink:href="#BitstreamVeraSans-Roman-37"/>
      <use x="127.24609375" xlink:href="#BitstreamVeraSans-Roman-2e"/>
      <use x="159.033203125" xlink:href="#BitstreamVeraSans-Roman-30"/>
     </g>
    </g>
    <g id="line2d_3">
     <path d="
M37.8 345.6
L272.16 345.6" style="fill:none;stroke:#000000;"/>
    </g>
    <g id="text_7">
     <!-- Salinity [Kg g$^{-1}$] -->
     <defs>
      <path id="BitstreamVeraSans-Roman-20"/>
      <path d="
M8.59375 75.9844
L29.2969 75.9844
L29.2969 69
L17.5781 69
L17.5781 -6.20312
L29.2969 -6.20312
L29.2969 -13.1875
L8.59375 -13.1875
z
" id="BitstreamVeraSans-Roman-5b"/>
      <path d="
M30.4219 75.9844
L30.4219 -13.1875
L9.71875 -13.1875
L9.71875 -6.20312
L21.3906 -6.20312
L21.3906 69
L9.71875 69
L9.71875 75.9844
z
" id="BitstreamVeraSans-Roman-5d"/>
      <path d="
M9.8125 72.9062
L19.6719 72.9062
L19.6719 42.0938
L52.3906 72.9062
L65.0938 72.9062
L28.9062 38.9219
L67.6719 0
L54.6875 0
L19.6719 35.1094
L19.6719 0
L9.8125 0
z
" id="BitstreamVeraSans-Roman-4b"/>
      <path d="
M62.0938 22
L6.40625 22
L6.40625 28.5938
L62.0938 28.5938
z
" id="STIXGeneral-Regular-2212"/>
      <path d="
M54.8906 33.0156
L54.8906 0
L45.9062 0
L45.9062 32.7188
Q45.9062 40.4844 42.875 44.3281
Q39.8438 48.1875 33.7969 48.1875
Q26.5156 48.1875 22.3125 43.5469
Q18.1094 38.9219 18.1094 30.9062
L18.1094 0
L9.07812 0
L9.07812 54.6875
L18.1094 54.6875
L18.1094 46.1875
Q21.3438 51.125 25.7031 53.5625
Q30.0781 56 35.7969 56
Q45.2188 56 50.0469 50.1719
Q54.8906 44.3438 54.8906 33.0156" id="BitstreamVeraSans-Roman-6e"/>
      <path d="
M30.2031 0
L22.2969 0
L22.2969 57
Q20.0938 56 15.75 53.75
Q11.4062 51.5 10.7969 51.2031
L10.7969 58.5
L28.7969 67.7031
L30.2031 67.2031
z
" id="STIXGeneral-Regular-1d7e3"/>
      <path d="
M9.42188 75.9844
L18.4062 75.9844
L18.4062 0
L9.42188 0
z
" id="BitstreamVeraSans-Roman-6c"/>
      <path d="
M53.5156 70.5156
L53.5156 60.8906
Q47.9062 63.5781 42.9219 64.8906
Q37.9375 66.2188 33.2969 66.2188
Q25.25 66.2188 20.875 63.0938
Q16.5 59.9688 16.5 54.2031
Q16.5 49.3594 19.4062 46.8906
Q22.3125 44.4375 30.4219 42.9219
L36.375 41.7031
Q47.4062 39.5938 52.6562 34.2969
Q57.9062 29 57.9062 20.125
Q57.9062 9.51562 50.7969 4.04688
Q43.7031 -1.42188 29.9844 -1.42188
Q24.8125 -1.42188 18.9688 -0.25
Q13.1406 0.921875 6.89062 3.21875
L6.89062 13.375
Q12.8906 10.0156 18.6562 8.29688
Q24.4219 6.59375 29.9844 6.59375
Q38.4219 6.59375 43.0156 9.90625
Q47.6094 13.2344 47.6094 19.3906
Q47.6094 24.75 44.3125 27.7812
Q41.0156 30.8125 33.5 32.3281
L27.4844 33.5
Q16.4531 35.6875 11.5156 40.375
Q6.59375 45.0625 6.59375 53.4219
Q6.59375 63.0938 13.4062 68.6562
Q20.2188 74.2188 32.1719 74.2188
Q37.3125 74.2188 42.625 73.2812
Q47.9531 72.3594 53.5156 70.5156" id="BitstreamVeraSans-Roman-53"/>
      <path d="
M9.42188 54.6875
L18.4062 54.6875
L18.4062 0
L9.42188 0
z

M9.42188 75.9844
L18.4062 75.9844
L18.4062 64.5938
L9.42188 64.5938
z
" id="BitstreamVeraSans-Roman-69"/>
      <path d="
M32.1719 -5.07812
Q28.375 -14.8438 24.75 -17.8125
Q21.1406 -20.7969 15.0938 -20.7969
L7.90625 -20.7969
L7.90625 -13.2812
L13.1875 -13.2812
Q16.8906 -13.2812 18.9375 -11.5156
Q21 -9.76562 23.4844 -3.21875
L25.0938 0.875
L2.98438 54.6875
L12.5 54.6875
L29.5938 11.9219
L46.6875 54.6875
L56.2031 54.6875
z
" id="BitstreamVeraSans-Roman-79"/>
      <path d="
M18.3125 70.2188
L18.3125 54.6875
L36.8125 54.6875
L36.8125 47.7031
L18.3125 47.7031
L18.3125 18.0156
Q18.3125 11.3281 20.1406 9.42188
Q21.9688 7.51562 27.5938 7.51562
L36.8125 7.51562
L36.8125 0
L27.5938 0
Q17.1875 0 13.2344 3.875
Q9.28125 7.76562 9.28125 18.0156
L9.28125 47.7031
L2.6875 47.7031
L2.6875 54.6875
L9.28125 54.6875
L9.28125 70.2188
z
" id="BitstreamVeraSans-Roman-74"/>
      <path d="
M34.2812 27.4844
Q23.3906 27.4844 19.1875 25
Q14.9844 22.5156 14.9844 16.5
Q14.9844 11.7188 18.1406 8.90625
Q21.2969 6.10938 26.7031 6.10938
Q34.1875 6.10938 38.7031 11.4062
Q43.2188 16.7031 43.2188 25.4844
L43.2188 27.4844
z

M52.2031 31.2031
L52.2031 0
L43.2188 0
L43.2188 8.29688
Q40.1406 3.32812 35.5469 0.953125
Q30.9531 -1.42188 24.3125 -1.42188
Q15.9219 -1.42188 10.9531 3.29688
Q6 8.01562 6 15.9219
Q6 25.1406 12.1719 29.8281
Q18.3594 34.5156 30.6094 34.5156
L43.2188 34.5156
L43.2188 35.4062
Q43.2188 41.6094 39.1406 45
Q35.0625 48.3906 27.6875 48.3906
Q23 48.3906 18.5469 47.2656
Q14.1094 46.1406 10.0156 43.8906
L10.0156 52.2031
Q14.9375 54.1094 19.5781 55.0469
Q24.2188 56 28.6094 56
Q40.4844 56 46.3438 49.8438
Q52.2031 43.7031 52.2031 31.2031" id="BitstreamVeraSans-Roman-61"/>
      <path d="
M45.4062 27.9844
Q45.4062 37.75 41.375 43.1094
Q37.3594 48.4844 30.0781 48.4844
Q22.8594 48.4844 18.8281 43.1094
Q14.7969 37.75 14.7969 27.9844
Q14.7969 18.2656 18.8281 12.8906
Q22.8594 7.51562 30.0781 7.51562
Q37.3594 7.51562 41.375 12.8906
Q45.4062 18.2656 45.4062 27.9844
M54.3906 6.78125
Q54.3906 -7.17188 48.1875 -13.9844
Q42 -20.7969 29.2031 -20.7969
Q24.4688 -20.7969 20.2656 -20.0938
Q16.0625 -19.3906 12.1094 -17.9219
L12.1094 -9.1875
Q16.0625 -11.3281 19.9219 -12.3438
Q23.7812 -13.375 27.7812 -13.375
Q36.625 -13.375 41.0156 -8.76562
Q45.4062 -4.15625 45.4062 5.17188
L45.4062 9.625
Q42.625 4.78125 38.2812 2.39062
Q33.9375 0 27.875 0
Q17.8281 0 11.6719 7.65625
Q5.51562 15.3281 5.51562 27.9844
Q5.51562 40.6719 11.6719 48.3281
Q17.8281 56 27.875 56
Q33.9375 56 38.2812 53.6094
Q42.625 51.2188 45.4062 46.3906
L45.4062 54.6875
L54.3906 54.6875
z
" id="BitstreamVeraSans-Roman-67"/>
     </defs>
     <g style="fill:#0000ff;" transform="translate(119.115 370.13765625)scale(0.09 -0.09)">
      <use transform="translate(0.0 21.015625)" xlink:href="#BitstreamVeraSans-Roman-53"/>
      <use transform="translate(63.4765625 21.015625)" xlink:href="#BitstreamVeraSans-Roman-61"/>
      <use transform="translate(124.755859375 21.015625)" xlink:href="#BitstreamVeraSans-Roman-6c"/>
      <use transform="translate(152.5390625 21.015625)" xlink:href="#BitstreamVeraSans-Roman-69"/>
      <use transform="translate(180.322265625 21.015625)" xlink:href="#BitstreamVeraSans-Roman-6e"/>
      <use transform="translate(243.701171875 21.015625)" xlink:href="#BitstreamVeraSans-Roman-69"/>
      <use transform="translate(271.484375 21.015625)" xlink:href="#BitstreamVeraSans-Roman-74"/>
      <use transform="translate(310.693359375 21.015625)" xlink:href="#BitstreamVeraSans-Roman-79"/>
      <use transform="translate(369.873046875 21.015625)" xlink:href="#BitstreamVeraSans-Roman-20"/>
      <use transform="translate(401.66015625 21.015625)" xlink:href="#BitstreamVeraSans-Roman-5b"/>
      <use transform="translate(440.673828125 21.015625)" xlink:href="#BitstreamVeraSans-Roman-4b"/>
      <use transform="translate(506.25 21.015625)" xlink:href="#BitstreamVeraSans-Roman-67"/>
      <use transform="translate(569.7265625 21.015625)" xlink:href="#BitstreamVeraSans-Roman-20"/>
      <use transform="translate(601.513671875 21.015625)" xlink:href="#BitstreamVeraSans-Roman-67"/>
      <use transform="translate(664.990234375 43.6640625)scale(0.7)" xlink:href="#STIXGeneral-Regular-2212"/>
      <use transform="translate(712.940223694 43.6640625)scale(0.7)" xlink:href="#STIXGeneral-Regular-1d7e3"/>
      <use transform="translate(756.999588013 21.015625)" xlink:href="#BitstreamVeraSans-Roman-5d"/>
     </g>
    </g>
   </g>
   <g id="mpl_toolkits.axisartist.axis_artist_2">
    <g id="line2d_4">
     <path d="
M37.8 43.2
L272.16 43.2" style="fill:none;stroke:#000000;"/>
    </g>
   </g>
   <g id="mpl_toolkits.axisartist.axis_artist_3">
    <defs>
     <path d="
M0 0
L4 0" id="m78292a2ad9" style="stroke:#000000;stroke-linecap:butt;stroke-width:0.5;"/>
    </defs>
    <g>
     <use style="fill:none;stroke:#000000;stroke-linecap:butt;stroke-width:0.5;" x="37.8" xlink:href="#m78292a2ad9" y="84.0425648022"/>
     <use style="fill:none;stroke:#000000;stroke-linecap:butt;stroke-width:0.5;" x="37.8" xlink:href="#m78292a2ad9" y="84.0425648022"/>
    </g>
    <g>
     <use style="fill:none;stroke:#000000;stroke-linecap:butt;stroke-width:0.5;" x="37.8" xlink:href="#m78292a2ad9" y="125.297680764"/>
     <use style="fill:none;stroke:#000000;stroke-linecap:butt;stroke-width:0.5;" x="37.8" xlink:href="#m78292a2ad9" y="125.297680764"/>
    </g>
    <g>
     <use style="fill:none;stroke:#000000;stroke-linecap:butt;stroke-width:0.5;" x="37.8" xlink:href="#m78292a2ad9" y="166.552796726"/>
     <use style="fill:none;stroke:#000000;stroke-linecap:butt;stroke-width:0.5;" x="37.8" xlink:href="#m78292a2ad9" y="166.552796726"/>
    </g>
    <g>
     <use style="fill:none;stroke:#000000;stroke-linecap:butt;stroke-width:0.5;" x="37.8" xlink:href="#m78292a2ad9" y="207.807912688"/>
     <use style="fill:none;stroke:#000000;stroke-linecap:butt;stroke-width:0.5;" x="37.8" xlink:href="#m78292a2ad9" y="207.807912688"/>
    </g>
    <g>
     <use style="fill:none;stroke:#000000;stroke-linecap:butt;stroke-width:0.5;" x="37.8" xlink:href="#m78292a2ad9" y="249.063028649"/>
     <use style="fill:none;stroke:#000000;stroke-linecap:butt;stroke-width:0.5;" x="37.8" xlink:href="#m78292a2ad9" y="249.063028649"/>
    </g>
    <g>
     <use style="fill:none;stroke:#000000;stroke-linecap:butt;stroke-width:0.5;" x="37.8" xlink:href="#m78292a2ad9" y="290.318144611"/>
     <use style="fill:none;stroke:#000000;stroke-linecap:butt;stroke-width:0.5;" x="37.8" xlink:href="#m78292a2ad9" y="290.318144611"/>
    </g>
    <g>
     <use style="fill:none;stroke:#000000;stroke-linecap:butt;stroke-width:0.5;" x="37.8" xlink:href="#m78292a2ad9" y="331.573260573"/>
     <use style="fill:none;stroke:#000000;stroke-linecap:butt;stroke-width:0.5;" x="37.8" xlink:href="#m78292a2ad9" y="331.573260573"/>
    </g>
    <g id="text_8">
     <!-- 200 -->
     <defs>
      <path d="
M19.1875 8.29688
L53.6094 8.29688
L53.6094 0
L7.32812 0
L7.32812 8.29688
Q12.9375 14.1094 22.625 23.8906
Q32.3281 33.6875 34.8125 36.5312
Q39.5469 41.8438 41.4219 45.5312
Q43.3125 49.2188 43.3125 52.7812
Q43.3125 58.5938 39.2344 62.25
Q35.1562 65.9219 28.6094 65.9219
Q23.9688 65.9219 18.8125 64.3125
Q13.6719 62.7031 7.8125 59.4219
L7.8125 69.3906
Q13.7656 71.7812 18.9375 73
Q24.125 74.2188 28.4219 74.2188
Q39.75 74.2188 46.4844 68.5469
Q53.2188 62.8906 53.2188 53.4219
Q53.2188 48.9219 51.5312 44.8906
Q49.8594 40.875 45.4062 35.4062
Q44.1875 33.9844 37.6406 27.2188
Q31.1094 20.4531 19.1875 8.29688" id="BitstreamVeraSans-Roman-32"/>
     </defs>
     <g transform="translate(17.8784375 87.3184241772)scale(0.09 -0.09)">
      <use xlink:href="#BitstreamVeraSans-Roman-32"/>
      <use x="63.623046875" xlink:href="#BitstreamVeraSans-Roman-30"/>
      <use x="127.24609375" xlink:href="#BitstreamVeraSans-Roman-30"/>
     </g>
    </g>
    <g id="text_9">
     <!-- 400 -->
     <g transform="translate(17.6590625 128.573540139)scale(0.09 -0.09)">
      <use xlink:href="#BitstreamVeraSans-Roman-34"/>
      <use x="63.623046875" xlink:href="#BitstreamVeraSans-Roman-30"/>
      <use x="127.24609375" xlink:href="#BitstreamVeraSans-Roman-30"/>
     </g>
    </g>
    <g id="text_10">
     <!-- 600 -->
     <g transform="translate(17.8475 169.828656101)scale(0.09 -0.09)">
      <use xlink:href="#BitstreamVeraSans-Roman-36"/>
      <use x="63.623046875" xlink:href="#BitstreamVeraSans-Roman-30"/>
      <use x="127.24609375" xlink:href="#BitstreamVeraSans-Roman-30"/>
     </g>
    </g>
    <g id="text_11">
     <!-- 800 -->
     <defs>
      <path d="
M31.7812 34.625
Q24.75 34.625 20.7188 30.8594
Q16.7031 27.0938 16.7031 20.5156
Q16.7031 13.9219 20.7188 10.1562
Q24.75 6.39062 31.7812 6.39062
Q38.8125 6.39062 42.8594 10.1719
Q46.9219 13.9688 46.9219 20.5156
Q46.9219 27.0938 42.8906 30.8594
Q38.875 34.625 31.7812 34.625
M21.9219 38.8125
Q15.5781 40.375 12.0312 44.7188
Q8.5 49.0781 8.5 55.3281
Q8.5 64.0625 14.7188 69.1406
Q20.9531 74.2188 31.7812 74.2188
Q42.6719 74.2188 48.875 69.1406
Q55.0781 64.0625 55.0781 55.3281
Q55.0781 49.0781 51.5312 44.7188
Q48 40.375 41.7031 38.8125
Q48.8281 37.1562 52.7969 32.3125
Q56.7812 27.4844 56.7812 20.5156
Q56.7812 9.90625 50.3125 4.23438
Q43.8438 -1.42188 31.7812 -1.42188
Q19.7344 -1.42188 13.25 4.23438
Q6.78125 9.90625 6.78125 20.5156
Q6.78125 27.4844 10.7812 32.3125
Q14.7969 37.1562 21.9219 38.8125
M18.3125 54.3906
Q18.3125 48.7344 21.8438 45.5625
Q25.3906 42.3906 31.7812 42.3906
Q38.1406 42.3906 41.7188 45.5625
Q45.3125 48.7344 45.3125 54.3906
Q45.3125 60.0625 41.7188 63.2344
Q38.1406 66.4062 31.7812 66.4062
Q25.3906 66.4062 21.8438 63.2344
Q18.3125 60.0625 18.3125 54.3906" id="BitstreamVeraSans-Roman-38"/>
     </defs>
     <g transform="translate(17.82921875 211.083772063)scale(0.09 -0.09)">
      <use xlink:href="#BitstreamVeraSans-Roman-38"/>
      <use x="63.623046875" xlink:href="#BitstreamVeraSans-Roman-30"/>
      <use x="127.24609375" xlink:href="#BitstreamVeraSans-Roman-30"/>
     </g>
    </g>
    <g id="text_12">
     <!-- 1000 -->
     <defs>
      <path d="
M12.4062 8.29688
L28.5156 8.29688
L28.5156 63.9219
L10.9844 60.4062
L10.9844 69.3906
L28.4219 72.9062
L38.2812 72.9062
L38.2812 8.29688
L54.3906 8.29688
L54.3906 0
L12.4062 0
z
" id="BitstreamVeraSans-Roman-31"/>
     </defs>
     <g transform="translate(12.48125 252.338888024)scale(0.09 -0.09)">
      <use xlink:href="#BitstreamVeraSans-Roman-31"/>
      <use x="63.623046875" xlink:href="#BitstreamVeraSans-Roman-30"/>
      <use x="127.24609375" xlink:href="#BitstreamVeraSans-Roman-30"/>
      <use x="190.869140625" xlink:href="#BitstreamVeraSans-Roman-30"/>
     </g>
    </g>
    <g id="text_13">
     <!-- 1200 -->
     <g transform="translate(12.48125 293.594003986)scale(0.09 -0.09)">
      <use xlink:href="#BitstreamVeraSans-Roman-31"/>
      <use x="63.623046875" xlink:href="#BitstreamVeraSans-Roman-32"/>
      <use x="127.24609375" xlink:href="#BitstreamVeraSans-Roman-30"/>
      <use x="190.869140625" xlink:href="#BitstreamVeraSans-Roman-30"/>
     </g>
    </g>
    <g id="text_14">
     <!-- 1400 -->
     <g transform="translate(12.48125 334.849119948)scale(0.09 -0.09)">
      <use xlink:href="#BitstreamVeraSans-Roman-31"/>
      <use x="63.623046875" xlink:href="#BitstreamVeraSans-Roman-34"/>
      <use x="127.24609375" xlink:href="#BitstreamVeraSans-Roman-30"/>
      <use x="190.869140625" xlink:href="#BitstreamVeraSans-Roman-30"/>
     </g>
    </g>
    <g id="line2d_5">
     <path d="
M37.8 345.6
L37.8 43.2" style="fill:none;stroke:#000000;"/>
    </g>
    <g id="text_15">
     <!-- Pressure [dbar] -->
     <defs>
      <path d="
M19.6719 64.7969
L19.6719 37.4062
L32.0781 37.4062
Q38.9688 37.4062 42.7188 40.9688
Q46.4844 44.5312 46.4844 51.125
Q46.4844 57.6719 42.7188 61.2344
Q38.9688 64.7969 32.0781 64.7969
z

M9.8125 72.9062
L32.0781 72.9062
Q44.3438 72.9062 50.6094 67.3594
Q56.8906 61.8125 56.8906 51.125
Q56.8906 40.3281 50.6094 34.8125
Q44.3438 29.2969 32.0781 29.2969
L19.6719 29.2969
L19.6719 0
L9.8125 0
z
" id="BitstreamVeraSans-Roman-50"/>
      <path d="
M56.2031 29.5938
L56.2031 25.2031
L14.8906 25.2031
Q15.4844 15.9219 20.4844 11.0625
Q25.4844 6.20312 34.4219 6.20312
Q39.5938 6.20312 44.4531 7.46875
Q49.3125 8.73438 54.1094 11.2812
L54.1094 2.78125
Q49.2656 0.734375 44.1875 -0.34375
Q39.1094 -1.42188 33.8906 -1.42188
Q20.7969 -1.42188 13.1562 6.1875
Q5.51562 13.8125 5.51562 26.8125
Q5.51562 40.2344 12.7656 48.1094
Q20.0156 56 32.3281 56
Q43.3594 56 49.7812 48.8906
Q56.2031 41.7969 56.2031 29.5938
M47.2188 32.2344
Q47.125 39.5938 43.0938 43.9844
Q39.0625 48.3906 32.4219 48.3906
Q24.9062 48.3906 20.3906 44.1406
Q15.875 39.8906 15.1875 32.1719
z
" id="BitstreamVeraSans-Roman-65"/>
      <path d="
M45.4062 46.3906
L45.4062 75.9844
L54.3906 75.9844
L54.3906 0
L45.4062 0
L45.4062 8.20312
Q42.5781 3.32812 38.25 0.953125
Q33.9375 -1.42188 27.875 -1.42188
Q17.9688 -1.42188 11.7344 6.48438
Q5.51562 14.4062 5.51562 27.2969
Q5.51562 40.1875 11.7344 48.0938
Q17.9688 56 27.875 56
Q33.9375 56 38.25 53.625
Q42.5781 51.2656 45.4062 46.3906
M14.7969 27.2969
Q14.7969 17.3906 18.875 11.75
Q22.9531 6.10938 30.0781 6.10938
Q37.2031 6.10938 41.2969 11.75
Q45.4062 17.3906 45.4062 27.2969
Q45.4062 37.2031 41.2969 42.8438
Q37.2031 48.4844 30.0781 48.4844
Q22.9531 48.4844 18.875 42.8438
Q14.7969 37.2031 14.7969 27.2969" id="BitstreamVeraSans-Roman-64"/>
      <path d="
M8.5 21.5781
L8.5 54.6875
L17.4844 54.6875
L17.4844 21.9219
Q17.4844 14.1562 20.5 10.2656
Q23.5312 6.39062 29.5938 6.39062
Q36.8594 6.39062 41.0781 11.0312
Q45.3125 15.6719 45.3125 23.6875
L45.3125 54.6875
L54.2969 54.6875
L54.2969 0
L45.3125 0
L45.3125 8.40625
Q42.0469 3.42188 37.7188 1
Q33.4062 -1.42188 27.6875 -1.42188
Q18.2656 -1.42188 13.375 4.4375
Q8.5 10.2969 8.5 21.5781" id="BitstreamVeraSans-Roman-75"/>
      <path d="
M41.1094 46.2969
Q39.5938 47.1719 37.8125 47.5781
Q36.0312 48 33.8906 48
Q26.2656 48 22.1875 43.0469
Q18.1094 38.0938 18.1094 28.8125
L18.1094 0
L9.07812 0
L9.07812 54.6875
L18.1094 54.6875
L18.1094 46.1875
Q20.9531 51.1719 25.4844 53.5781
Q30.0312 56 36.5312 56
Q37.4531 56 38.5781 55.875
Q39.7031 55.7656 41.0625 55.5156
z
" id="BitstreamVeraSans-Roman-72"/>
      <path d="
M44.2812 53.0781
L44.2812 44.5781
Q40.4844 46.5312 36.375 47.5
Q32.2812 48.4844 27.875 48.4844
Q21.1875 48.4844 17.8438 46.4375
Q14.5 44.3906 14.5 40.2812
Q14.5 37.1562 16.8906 35.375
Q19.2812 33.5938 26.5156 31.9844
L29.5938 31.2969
Q39.1562 29.25 43.1875 25.5156
Q47.2188 21.7812 47.2188 15.0938
Q47.2188 7.46875 41.1875 3.01562
Q35.1562 -1.42188 24.6094 -1.42188
Q20.2188 -1.42188 15.4531 -0.5625
Q10.6875 0.296875 5.42188 2
L5.42188 11.2812
Q10.4062 8.6875 15.2344 7.39062
Q20.0625 6.10938 24.8125 6.10938
Q31.1562 6.10938 34.5625 8.28125
Q37.9844 10.4531 37.9844 14.4062
Q37.9844 18.0625 35.5156 20.0156
Q33.0625 21.9688 24.7031 23.7812
L21.5781 24.5156
Q13.2344 26.2656 9.51562 29.9062
Q5.8125 33.5469 5.8125 39.8906
Q5.8125 47.6094 11.2812 51.7969
Q16.75 56 26.8125 56
Q31.7812 56 36.1719 55.2656
Q40.5781 54.5469 44.2812 53.0781" id="BitstreamVeraSans-Roman-73"/>
      <path d="
M48.6875 27.2969
Q48.6875 37.2031 44.6094 42.8438
Q40.5312 48.4844 33.4062 48.4844
Q26.2656 48.4844 22.1875 42.8438
Q18.1094 37.2031 18.1094 27.2969
Q18.1094 17.3906 22.1875 11.75
Q26.2656 6.10938 33.4062 6.10938
Q40.5312 6.10938 44.6094 11.75
Q48.6875 17.3906 48.6875 27.2969
M18.1094 46.3906
Q20.9531 51.2656 25.2656 53.625
Q29.5938 56 35.5938 56
Q45.5625 56 51.7812 48.0938
Q58.0156 40.1875 58.0156 27.2969
Q58.0156 14.4062 51.7812 6.48438
Q45.5625 -1.42188 35.5938 -1.42188
Q29.5938 -1.42188 25.2656 0.953125
Q20.9531 3.32812 18.1094 8.20312
L18.1094 0
L9.07812 0
L9.07812 75.9844
L18.1094 75.9844
z
" id="BitstreamVeraSans-Roman-62"/>
     </defs>
     <g transform="translate(7.48125 227.29921875)rotate(-90.0)scale(0.09 -0.09)">
      <use xlink:href="#BitstreamVeraSans-Roman-50"/>
      <use x="58.552734375" xlink:href="#BitstreamVeraSans-Roman-72"/>
      <use x="97.416015625" xlink:href="#BitstreamVeraSans-Roman-65"/>
      <use x="158.939453125" xlink:href="#BitstreamVeraSans-Roman-73"/>
      <use x="211.0390625" xlink:href="#BitstreamVeraSans-Roman-73"/>
      <use x="263.138671875" xlink:href="#BitstreamVeraSans-Roman-75"/>
      <use x="326.517578125" xlink:href="#BitstreamVeraSans-Roman-72"/>
      <use x="365.380859375" xlink:href="#BitstreamVeraSans-Roman-65"/>
      <use x="426.904296875" xlink:href="#BitstreamVeraSans-Roman-20"/>
      <use x="458.69140625" xlink:href="#BitstreamVeraSans-Roman-5b"/>
      <use x="497.705078125" xlink:href="#BitstreamVeraSans-Roman-64"/>
      <use x="561.181640625" xlink:href="#BitstreamVeraSans-Roman-62"/>
      <use x="624.658203125" xlink:href="#BitstreamVeraSans-Roman-61"/>
      <use x="685.9375" xlink:href="#BitstreamVeraSans-Roman-72"/>
      <use x="727.05078125" xlink:href="#BitstreamVeraSans-Roman-5d"/>
     </g>
    </g>
   </g>
   <g id="mpl_toolkits.axisartist.axis_artist_4">
    <defs>
     <path d="
M0 0
L-4 -4.89859e-16" id="maca8706ae2" style="stroke:#000000;stroke-linecap:butt;stroke-width:0.5;"/>
    </defs>
    <g>
     <use style="fill:none;stroke:#000000;stroke-linecap:butt;stroke-width:0.5;" x="272.16" xlink:href="#maca8706ae2" y="84.0425648022"/>
     <use style="fill:none;stroke:#000000;stroke-linecap:butt;stroke-width:0.5;" x="272.16" xlink:href="#maca8706ae2" y="84.0425648022"/>
    </g>
    <g>
     <use style="fill:none;stroke:#000000;stroke-linecap:butt;stroke-width:0.5;" x="272.16" xlink:href="#maca8706ae2" y="125.297680764"/>
     <use style="fill:none;stroke:#000000;stroke-linecap:butt;stroke-width:0.5;" x="272.16" xlink:href="#maca8706ae2" y="125.297680764"/>
    </g>
    <g>
     <use style="fill:none;stroke:#000000;stroke-linecap:butt;stroke-width:0.5;" x="272.16" xlink:href="#maca8706ae2" y="166.552796726"/>
     <use style="fill:none;stroke:#000000;stroke-linecap:butt;stroke-width:0.5;" x="272.16" xlink:href="#maca8706ae2" y="166.552796726"/>
    </g>
    <g>
     <use style="fill:none;stroke:#000000;stroke-linecap:butt;stroke-width:0.5;" x="272.16" xlink:href="#maca8706ae2" y="207.807912688"/>
     <use style="fill:none;stroke:#000000;stroke-linecap:butt;stroke-width:0.5;" x="272.16" xlink:href="#maca8706ae2" y="207.807912688"/>
    </g>
    <g>
     <use style="fill:none;stroke:#000000;stroke-linecap:butt;stroke-width:0.5;" x="272.16" xlink:href="#maca8706ae2" y="249.063028649"/>
     <use style="fill:none;stroke:#000000;stroke-linecap:butt;stroke-width:0.5;" x="272.16" xlink:href="#maca8706ae2" y="249.063028649"/>
    </g>
    <g>
     <use style="fill:none;stroke:#000000;stroke-linecap:butt;stroke-width:0.5;" x="272.16" xlink:href="#maca8706ae2" y="290.318144611"/>
     <use style="fill:none;stroke:#000000;stroke-linecap:butt;stroke-width:0.5;" x="272.16" xlink:href="#maca8706ae2" y="290.318144611"/>
    </g>
    <g>
     <use style="fill:none;stroke:#000000;stroke-linecap:butt;stroke-width:0.5;" x="272.16" xlink:href="#maca8706ae2" y="331.573260573"/>
     <use style="fill:none;stroke:#000000;stroke-linecap:butt;stroke-width:0.5;" x="272.16" xlink:href="#maca8706ae2" y="331.573260573"/>
    </g>
    <g id="line2d_6">
     <path d="
M272.16 345.6
L272.16 43.2" style="fill:none;stroke:#000000;"/>
    </g>
   </g>
   <g id="mpl_toolkits.axisartist.axis_artist_5">
    <g>
     <use style="fill:none;stroke:#000000;stroke-linecap:butt;stroke-width:0.5;" x="37.8" xlink:href="#m5884616ec4" y="385.6"/>
     <use style="fill:none;stroke:#000000;stroke-linecap:butt;stroke-width:0.5;" x="37.8" xlink:href="#m5884616ec4" y="385.6"/>
    </g>
    <g>
     <use style="fill:none;stroke:#000000;stroke-linecap:butt;stroke-width:0.5;" x="84.672" xlink:href="#m5884616ec4" y="385.6"/>
     <use style="fill:none;stroke:#000000;stroke-linecap:butt;stroke-width:0.5;" x="84.672" xlink:href="#m5884616ec4" y="385.6"/>
    </g>
    <g>
     <use style="fill:none;stroke:#000000;stroke-linecap:butt;stroke-width:0.5;" x="131.544" xlink:href="#m5884616ec4" y="385.6"/>
     <use style="fill:none;stroke:#000000;stroke-linecap:butt;stroke-width:0.5;" x="131.544" xlink:href="#m5884616ec4" y="385.6"/>
    </g>
    <g>
     <use style="fill:none;stroke:#000000;stroke-linecap:butt;stroke-width:0.5;" x="178.416" xlink:href="#m5884616ec4" y="385.6"/>
     <use style="fill:none;stroke:#000000;stroke-linecap:butt;stroke-width:0.5;" x="178.416" xlink:href="#m5884616ec4" y="385.6"/>
    </g>
    <g>
     <use style="fill:none;stroke:#000000;stroke-linecap:butt;stroke-width:0.5;" x="225.288" xlink:href="#m5884616ec4" y="385.6"/>
     <use style="fill:none;stroke:#000000;stroke-linecap:butt;stroke-width:0.5;" x="225.288" xlink:href="#m5884616ec4" y="385.6"/>
    </g>
    <g>
     <use style="fill:none;stroke:#000000;stroke-linecap:butt;stroke-width:0.5;" x="272.16" xlink:href="#m5884616ec4" y="385.6"/>
     <use style="fill:none;stroke:#000000;stroke-linecap:butt;stroke-width:0.5;" x="272.16" xlink:href="#m5884616ec4" y="385.6"/>
    </g>
    <g id="text_16">
     <!-- 0 -->
     <g transform="translate(35.532421875 396.2796875)scale(0.09 -0.09)">
      <use xlink:href="#BitstreamVeraSans-Roman-30"/>
     </g>
    </g>
    <g id="text_17">
     <!-- 5 -->
     <g transform="translate(82.549265625 396.2796875)scale(0.09 -0.09)">
      <use xlink:href="#BitstreamVeraSans-Roman-35"/>
     </g>
    </g>
    <g id="text_18">
     <!-- 10 -->
     <g transform="translate(126.610875 396.2796875)scale(0.09 -0.09)">
      <use xlink:href="#BitstreamVeraSans-Roman-31"/>
      <use x="63.623046875" xlink:href="#BitstreamVeraSans-Roman-30"/>
     </g>
    </g>
    <g id="text_19">
     <!-- 15 -->
     <g transform="translate(173.57709375 396.2796875)scale(0.09 -0.09)">
      <use xlink:href="#BitstreamVeraSans-Roman-31"/>
      <use x="63.623046875" xlink:href="#BitstreamVeraSans-Roman-35"/>
     </g>
    </g>
    <g id="text_20">
     <!-- 20 -->
     <g transform="translate(220.19034375 396.2796875)scale(0.09 -0.09)">
      <use xlink:href="#BitstreamVeraSans-Roman-32"/>
      <use x="63.623046875" xlink:href="#BitstreamVeraSans-Roman-30"/>
     </g>
    </g>
    <g id="text_21">
     <!-- 25 -->
     <g transform="translate(267.1565625 396.2796875)scale(0.09 -0.09)">
      <use xlink:href="#BitstreamVeraSans-Roman-32"/>
      <use x="63.623046875" xlink:href="#BitstreamVeraSans-Roman-35"/>
     </g>
    </g>
    <g id="line2d_7">
     <path d="
M37.8 385.6
L272.16 385.6" style="fill:none;stroke:#000000;"/>
    </g>
    <g id="text_22">
     <!-- Temperature[°C] -->
     <defs>
      <path d="
M52 44.1875
Q55.375 50.25 60.0625 53.125
Q64.75 56 71.0938 56
Q79.6406 56 84.2812 50.0156
Q88.9219 44.0469 88.9219 33.0156
L88.9219 0
L79.8906 0
L79.8906 32.7188
Q79.8906 40.5781 77.0938 44.375
Q74.3125 48.1875 68.6094 48.1875
Q61.625 48.1875 57.5625 43.5469
Q53.5156 38.9219 53.5156 30.9062
L53.5156 0
L44.4844 0
L44.4844 32.7188
Q44.4844 40.625 41.7031 44.4062
Q38.9219 48.1875 33.1094 48.1875
Q26.2188 48.1875 22.1562 43.5312
Q18.1094 38.875 18.1094 30.9062
L18.1094 0
L9.07812 0
L9.07812 54.6875
L18.1094 54.6875
L18.1094 46.1875
Q21.1875 51.2188 25.4844 53.6094
Q29.7812 56 35.6875 56
Q41.6562 56 45.8281 52.9688
Q50 49.9531 52 44.1875" id="BitstreamVeraSans-Roman-6d"/>
      <path d="
M-0.296875 72.9062
L61.375 72.9062
L61.375 64.5938
L35.5 64.5938
L35.5 0
L25.5938 0
L25.5938 64.5938
L-0.296875 64.5938
z
" id="BitstreamVeraSans-Roman-54"/>
      <path d="
M64.4062 67.2812
L64.4062 56.8906
Q59.4219 61.5312 53.7812 63.8125
Q48.1406 66.1094 41.7969 66.1094
Q29.2969 66.1094 22.6562 58.4688
Q16.0156 50.8281 16.0156 36.375
Q16.0156 21.9688 22.6562 14.3281
Q29.2969 6.6875 41.7969 6.6875
Q48.1406 6.6875 53.7812 8.98438
Q59.4219 11.2812 64.4062 15.9219
L64.4062 5.60938
Q59.2344 2.09375 53.4375 0.328125
Q47.6562 -1.42188 41.2188 -1.42188
Q24.6562 -1.42188 15.125 8.70312
Q5.60938 18.8438 5.60938 36.375
Q5.60938 53.9531 15.125 64.0781
Q24.6562 74.2188 41.2188 74.2188
Q47.75 74.2188 53.5312 72.4844
Q59.3281 70.75 64.4062 67.2812" id="BitstreamVeraSans-Roman-43"/>
      <path d="
M18.1094 8.20312
L18.1094 -20.7969
L9.07812 -20.7969
L9.07812 54.6875
L18.1094 54.6875
L18.1094 46.3906
Q20.9531 51.2656 25.2656 53.625
Q29.5938 56 35.5938 56
Q45.5625 56 51.7812 48.0938
Q58.0156 40.1875 58.0156 27.2969
Q58.0156 14.4062 51.7812 6.48438
Q45.5625 -1.42188 35.5938 -1.42188
Q29.5938 -1.42188 25.2656 0.953125
Q20.9531 3.32812 18.1094 8.20312
M48.6875 27.2969
Q48.6875 37.2031 44.6094 42.8438
Q40.5312 48.4844 33.4062 48.4844
Q26.2656 48.4844 22.1875 42.8438
Q18.1094 37.2031 18.1094 27.2969
Q18.1094 17.3906 22.1875 11.75
Q26.2656 6.10938 33.4062 6.10938
Q40.5312 6.10938 44.6094 11.75
Q48.6875 17.3906 48.6875 27.2969" id="BitstreamVeraSans-Roman-70"/>
      <path d="
M25 67.9219
Q21.0938 67.9219 18.4062 65.2031
Q15.7188 62.5 15.7188 58.5938
Q15.7188 54.7344 18.4062 52.0781
Q21.0938 49.4219 25 49.4219
Q28.9062 49.4219 31.5938 52.0781
Q34.2812 54.7344 34.2812 58.5938
Q34.2812 62.4531 31.5625 65.1875
Q28.8594 67.9219 25 67.9219
M25 74.2188
Q28.125 74.2188 31 73.0156
Q33.8906 71.8281 35.9844 69.5781
Q38.2344 67.3906 39.3594 64.5938
Q40.4844 61.8125 40.4844 58.5938
Q40.4844 52.1562 35.9688 47.6875
Q31.4531 43.2188 24.9062 43.2188
Q18.3125 43.2188 13.9062 47.6094
Q9.51562 52 9.51562 58.5938
Q9.51562 65.1406 14 69.6719
Q18.5 74.2188 25 74.2188" id="BitstreamVeraSans-Roman-b0"/>
     </defs>
     <g style="fill:#008000;" transform="translate(117.947109375 408.24625)scale(0.09 -0.09)">
      <use xlink:href="#BitstreamVeraSans-Roman-54"/>
      <use x="44.083984375" xlink:href="#BitstreamVeraSans-Roman-65"/>
      <use x="105.607421875" xlink:href="#BitstreamVeraSans-Roman-6d"/>
      <use x="203.01953125" xlink:href="#BitstreamVeraSans-Roman-70"/>
      <use x="266.49609375" xlink:href="#BitstreamVeraSans-Roman-65"/>
      <use x="328.01953125" xlink:href="#BitstreamVeraSans-Roman-72"/>
      <use x="369.1328125" xlink:href="#BitstreamVeraSans-Roman-61"/>
      <use x="430.412109375" xlink:href="#BitstreamVeraSans-Roman-74"/>
      <use x="469.62109375" xlink:href="#BitstreamVeraSans-Roman-75"/>
      <use x="533.0" xlink:href="#BitstreamVeraSans-Roman-72"/>
      <use x="571.86328125" xlink:href="#BitstreamVeraSans-Roman-65"/>
      <use x="633.38671875" xlink:href="#BitstreamVeraSans-Roman-5b"/>
      <use x="672.400390625" xlink:href="#BitstreamVeraSans-Roman-b0"/>
      <use x="722.400390625" xlink:href="#BitstreamVeraSans-Roman-43"/>
      <use x="792.224609375" xlink:href="#BitstreamVeraSans-Roman-5d"/>
     </g>
    </g>
   </g>
   <g id="text_23">
    <!-- CTD 15 -->
    <defs>
     <path d="
M19.6719 64.7969
L19.6719 8.10938
L31.5938 8.10938
Q46.6875 8.10938 53.6875 14.9375
Q60.6875 21.7812 60.6875 36.5312
Q60.6875 51.1719 53.6875 57.9844
Q46.6875 64.7969 31.5938 64.7969
z

M9.8125 72.9062
L30.0781 72.9062
Q51.2656 72.9062 61.1719 64.0938
Q71.0938 55.2812 71.0938 36.5312
Q71.0938 17.6719 61.125 8.82812
Q51.1719 0 30.0781 0
L9.8125 0
z
" id="BitstreamVeraSans-Roman-44"/>
    </defs>
    <g transform="translate(135.63703125 38.2)scale(0.108 -0.108)">
     <use xlink:href="#BitstreamVeraSans-Roman-43"/>
     <use x="69.82421875" xlink:href="#BitstreamVeraSans-Roman-54"/>
     <use x="130.908203125" xlink:href="#BitstreamVeraSans-Roman-44"/>
     <use x="207.91015625" xlink:href="#BitstreamVeraSans-Roman-20"/>
     <use x="239.697265625" xlink:href="#BitstreamVeraSans-Roman-31"/>
     <use x="303.3203125" xlink:href="#BitstreamVeraSans-Roman-35"/>
    </g>
   </g>
   <g id="legend_1">
    <g id="patch_3">
     <path d="
M187.976 327.465
L290.399 327.465
Q292.559 327.465 292.559 325.305
L292.559 294.68
Q292.559 292.52 290.399 292.52
L187.976 292.52
Q185.816 292.52 185.816 294.68
L185.816 325.305
Q185.816 327.465 187.976 327.465
z
" style="fill:#4c4c4c;opacity:0.5;stroke:#4c4c4c;"/>
    </g>
    <g id="patch_4">
     <path d="
M185.976 325.465
L288.399 325.465
Q290.559 325.465 290.559 323.305
L290.559 292.68
Q290.559 290.52 288.399 290.52
L185.976 290.52
Q183.816 290.52 183.816 292.68
L183.816 323.305
Q183.816 325.465 185.976 325.465
z
" style="fill:#ffffff;stroke:#000000;"/>
    </g>
    <g id="line2d_8">
     <path d="
M188.136 299.266
L209.736 299.266" style="fill:none;stroke:#008000;stroke-width:2.0;"/>
    </g>
    <g id="line2d_9"/>
    <g id="text_24">
     <!-- Temperature -->
     <g transform="translate(218.376 303.0463125)scale(0.108 -0.108)">
      <use xlink:href="#BitstreamVeraSans-Roman-54"/>
      <use x="44.083984375" xlink:href="#BitstreamVeraSans-Roman-65"/>
      <use x="105.607421875" xlink:href="#BitstreamVeraSans-Roman-6d"/>
      <use x="203.01953125" xlink:href="#BitstreamVeraSans-Roman-70"/>
      <use x="266.49609375" xlink:href="#BitstreamVeraSans-Roman-65"/>
      <use x="328.01953125" xlink:href="#BitstreamVeraSans-Roman-72"/>
      <use x="369.1328125" xlink:href="#BitstreamVeraSans-Roman-61"/>
      <use x="430.412109375" xlink:href="#BitstreamVeraSans-Roman-74"/>
      <use x="469.62109375" xlink:href="#BitstreamVeraSans-Roman-75"/>
      <use x="533.0" xlink:href="#BitstreamVeraSans-Roman-72"/>
      <use x="571.86328125" xlink:href="#BitstreamVeraSans-Roman-65"/>
     </g>
    </g>
    <g id="line2d_10">
     <path d="
M188.136 315.119
L209.736 315.119" style="fill:none;stroke:#0000ff;stroke-width:2.0;"/>
    </g>
    <g id="line2d_11"/>
    <g id="text_25">
     <!-- Salinity -->
     <g transform="translate(218.376 318.8986875)scale(0.108 -0.108)">
      <use xlink:href="#BitstreamVeraSans-Roman-53"/>
      <use x="63.4765625" xlink:href="#BitstreamVeraSans-Roman-61"/>
      <use x="124.755859375" xlink:href="#BitstreamVeraSans-Roman-6c"/>
      <use x="152.5390625" xlink:href="#BitstreamVeraSans-Roman-69"/>
      <use x="180.322265625" xlink:href="#BitstreamVeraSans-Roman-6e"/>
      <use x="243.701171875" xlink:href="#BitstreamVeraSans-Roman-69"/>
      <use x="271.484375" xlink:href="#BitstreamVeraSans-Roman-74"/>
      <use x="310.693359375" xlink:href="#BitstreamVeraSans-Roman-79"/>
     </g>
    </g>
   </g>
  </g>
 </g>
 <defs>
  <clipPath id="p25f105f143">
   <rect height="302.4" width="234.36" x="37.8" y="43.2"/>
  </clipPath>
 </defs>
</svg>
